<svg width="110" height="29" viewBox="0 0 110 29" fill="none" xmlns="http://www.w3.org/2000/svg">
<rect x="1" y="4" width="99" height="18" rx="3" fill="url(#paint0_linear_98_31)" stroke="#60ECFF" stroke-width="0.7"/>
<circle cx="99.5" cy="13.5" r="9.5" stroke="white" stroke-width="0.7" stroke-linecap="round" stroke-dasharray="0.01 3"/>
<circle cx="99.5" cy="13.5" r="7.5" fill="url(#paint1_radial_98_31)"/>
<path d="M92.5 13.1372C92.5 13.1372 96.3285 13.1056 97.9104 11.5509C99.5179 9.97108 99.5711 6.06611 99.5711 6.06611C99.5711 6.06611 99.7288 9.84522 101.247 11.3892C102.79 12.9585 106.642 13.1372 106.642 13.1372C106.642 13.1372 102.796 13.2767 101.229 14.87C99.6884 16.4375 99.5711 20.2082 99.5711 20.2082C99.5711 20.2082 99.3488 16.3874 97.7858 14.8503C96.2484 13.3382 92.5 13.1372 92.5 13.1372Z" fill="white"/>
<path d="M10.3496 16.7756C10.3496 16.7756 9.13516 19.4878 9.82904 20.9969C10.5229 22.506 13.3723 23.3496 13.3723 23.3496C13.3723 23.3496 10.6601 22.1352 9.15104 22.8291C7.64194 23.5229 6.79832 26.3723 6.79832 26.3723C6.79832 26.3723 8.01274 23.6602 7.31886 22.1511C6.62497 20.642 3.77561 19.7983 3.77561 19.7983C3.77561 19.7983 6.48775 21.0128 7.99686 20.3189C9.50596 19.625 10.3496 16.7756 10.3496 16.7756Z" fill="url(#paint2_radial_98_31)"/>
<circle cx="30.5" cy="3.5" r="3.5" fill="url(#paint3_radial_98_31)"/>
<path d="M30.5 1L31.4369 2.56308L33 3.5L31.4369 4.43692L30.5 6L29.5631 4.43692L28 3.5L29.5631 2.56308L30.5 1Z" fill="url(#paint4_radial_98_31)"/>
<defs>
<linearGradient id="paint0_linear_98_31" x1="1" y1="13" x2="100" y2="13" gradientUnits="userSpaceOnUse">
<stop stop-color="#00BBFF" stop-opacity="0.71"/>
<stop offset="1" stop-color="#3E59C3" stop-opacity="0.34"/>
</linearGradient>
<radialGradient id="paint1_radial_98_31" cx="0" cy="0" r="1" gradientUnits="userSpaceOnUse" gradientTransform="translate(99.5 13.5) rotate(90) scale(7.5)">
<stop stop-color="#E4FCFF"/>
<stop offset="0.807584" stop-color="#E4FCFF" stop-opacity="0"/>
</radialGradient>
<radialGradient id="paint2_radial_98_31" cx="0" cy="0" r="1" gradientUnits="userSpaceOnUse" gradientTransform="translate(8.57395 21.574) rotate(110.307) scale(5.11633)">
<stop stop-color="white"/>
<stop offset="0.497915" stop-color="#C9F2FF" stop-opacity="0.6"/>
<stop offset="1" stop-color="#C9F2FF" stop-opacity="0.21"/>
</radialGradient>
<radialGradient id="paint3_radial_98_31" cx="0" cy="0" r="1" gradientUnits="userSpaceOnUse" gradientTransform="translate(30.5 3.5) rotate(90) scale(3.5)">
<stop stop-color="white" stop-opacity="0.8"/>
<stop offset="1" stop-color="white" stop-opacity="0"/>
</radialGradient>
<radialGradient id="paint4_radial_98_31" cx="0" cy="0" r="1" gradientUnits="userSpaceOnUse" gradientTransform="translate(30.5 3.5) rotate(90) scale(2.5)">
<stop stop-color="#F7FDFF"/>
<stop offset="0.6568" stop-color="#F7FDFF" stop-opacity="0.8"/>
<stop offset="1" stop-color="#F7FDFF" stop-opacity="0.5"/>
</radialGradient>
</defs>
</svg>
