<svg xmlns="http://www.w3.org/2000/svg" width="26" height="26" viewBox="0 0 26 26" fill="none">
  <mask id="mask0_109_28" style="mask-type:alpha" maskUnits="userSpaceOnUse" x="0" y="0" width="25" height="26">
    <path d="M0 12.53C0 10.1033 0.525 7.945 1.575 6.055C2.625 4.14167 4.08333 2.66 5.95 1.61C7.84 0.536667 9.975 0 12.355 0C15.2717 0 17.7683 0.77 19.845 2.31C21.9217 3.85 23.31 5.95 24.01 8.61H17.43C16.94 7.58333 16.24 6.80167 15.33 6.265C14.4433 5.72833 13.4283 5.46 12.285 5.46C10.4417 5.46 8.94833 6.10167 7.805 7.385C6.66167 8.66833 6.09 10.3833 6.09 12.53C6.09 14.6767 6.66167 16.3917 7.805 17.675C8.94833 18.9583 10.4417 19.6 12.285 19.6C13.4283 19.6 14.4433 19.3317 15.33 18.795C16.24 18.2583 16.94 17.4767 17.43 16.45H24.01C23.31 19.11 21.9217 21.21 19.845 22.75C17.7683 24.2667 15.2717 25.025 12.355 25.025C9.975 25.025 7.84 24.5 5.95 23.45C4.08333 22.3767 2.625 20.895 1.575 19.005C0.525 17.115 0 14.9567 0 12.53Z" fill="white"/>
  </mask>
  <g mask="url(#mask0_109_28)">
    <rect width="24" height="13" fill="white"/>
  </g>
  <path d="M26 13.5C26 19.8513 20.8513 25 14.5 25C8.14873 25 3 19.8513 3 13.5V13H9.05957C9.45821 16.3922 11.8533 19 14.75 19C17.6467 19 20.0418 16.3922 20.4404 13H26V13.5Z" fill="white"/>
</svg>